Coordinates
version=1
nRows=11
nColumns=42
inDegrees=yes

Units are S.I. units (second, meters, Newtons, ...)
If the header above contains a line with 'inDegrees', this indicates whether rotational values are in degrees (yes) or radians (no).

endheader
time	pelvis_tilt	pelvis_list	pelvis_rotation	pelvis_tx	pelvis_ty	pelvis_tz	hip_flexion_r	hip_adduction_r	hip_rotation_r	knee_angle_r	knee_adduction_r	knee_angle_r_beta	ankle_angle_r	subtalar_angle_r	mtp_angle_r	hip_flexion_l	hip_adduction_l	hip_rotation_l	knee_angle_l	knee_adduction_l	knee_angle_l_beta	ankle_angle_l	subtalar_angle_l	mtp_angle_l	lumbar_extension	lumbar_bending	lumbar_rotation	arm_flex_r	arm_add_r	arm_rot_r	elbow_flex_r	pro_sup_r	wrist_flex_r	wrist_dev_r	arm_flex_l	arm_add_l	arm_rot_l	elbow_flex_l	pro_sup_l	wrist_flex_l	wrist_dev_l
      0.15000000	     -2.05259328	     -0.25678098	      5.39527054	     -1.37910460	      0.85710372	      0.13627923	     25.77915834	     -7.74631212	     -9.53804161	      5.86553251	      9.75391698	      0.10237285	      1.36296849	     -4.23798025	     -9.47267077	    -12.67812177	    -11.11407985	      1.29366955	     10.69269260	     22.31140192	      0.18662269	     17.15883535	      3.92246984	     -9.47267077	    -10.18133900	      3.85559825	     -4.90716804	     -6.78171697	    -13.26722107	    -13.89077523	     24.24947253	     90.00000001	      0.00000000	      0.00000000	      5.56310870	    -19.69430112	      4.23606969	     51.22915878	     90.00000001	      0.00000000	      0.00000000
      0.16000000	     -1.90825592	     -0.44925587	      5.58889096	     -1.36656290	      0.85640815	      0.13735013	     25.67076851	     -7.59897241	     -9.51948749	      7.12004147	      9.80737584	      0.12426817	      1.09749473	     -4.75647389	     -9.43302508	    -13.29737801	    -11.64957938	      1.61469158	     11.33880260	     22.35886636	      0.19789944	     16.76965367	      3.97307360	     -9.43302508	    -10.17773027	      4.23050583	     -5.08915146	     -6.88957685	    -13.28453621	    -13.83959986	     24.23313885	     90.00000001	      0.00000000	      0.00000000	      5.32686199	    -19.62261570	      4.25601507	     51.00027611	     90.00000001	      0.00000000	      0.00000000
      0.17000000	     -1.86156119	     -0.59164769	      5.67848165	     -1.35371945	      0.85581627	      0.13844937	     25.45146257	     -7.45219542	     -8.96043797	      7.99915434	      9.95195791	      0.13961158	      0.88609022	     -4.70278986	     -9.41972472	    -13.82492376	    -11.96926169	      2.18820660	     11.93849070	     22.21529748	      0.20836597	     16.53763715	      4.04414469	     -9.41972472	    -10.03199723	      4.56002276	     -5.21051510	     -7.14961795	    -13.23062642	    -13.83947729	     24.21086806	     90.00000001	      0.00000000	      0.00000000	      4.90928833	    -19.49894130	      4.30550529	     50.84116151	     90.00000001	      0.00000000	      0.00000000
      0.18000000	     -1.67417500	     -0.99003530	      5.78409211	     -1.34095335	      0.85548201	      0.13977082	     25.37253268	     -7.07592191	     -9.61885948	      9.77936054	      9.99723731	      0.17068204	     -0.16280581	     -5.95772409	     -9.37831405	    -14.29970433	    -12.78601963	      2.42108080	     12.96749039	     22.42745355	      0.22632540	     15.51836238	      3.68262340	     -9.37831405	    -10.06282320	      5.17278051	     -5.35314117	     -7.02456347	    -13.32286458	    -13.79354100	     23.99260901	     90.00000001	      0.00000000	      0.00000000	      4.67784898	    -19.31890524	      4.30295830	     50.22476916	     90.00000001	      0.00000000	      0.00000000
      0.19000000	     -1.64659456	     -1.30607391	      5.82147228	     -1.32804262	      0.85530853	      0.14107075	     25.25463816	     -6.75118209	     -9.49703434	     11.05588625	     10.12787136	      0.19296162	     -1.08524389	     -6.74161102	     -9.33537383	    -14.54731100	    -13.34991163	      2.85707528	     14.04421065	     22.44171113	      0.24511772	     14.55726629	      3.20131860	     -9.33537383	     -9.89385120	      5.69381468	     -5.40710760	     -6.99863459	    -13.36592839	    -13.75920206	     23.67675408	     90.00000001	      0.00000000	      0.00000000	      4.33522190	    -19.04478105	      4.26454289	     49.53410399	     90.00000001	      0.00000000	      0.00000000
      0.20000000	     -1.56564583	     -1.54302371	      5.75265192	     -1.31489661	      0.85549081	      0.14235892	     24.92022364	     -6.46226533	     -8.80481488	     11.97816787	     10.38926052	      0.20905847	     -1.34455631	     -6.64539702	     -9.32198798	    -14.93501668	    -13.66895133	      3.62596357	     14.84385875	     22.29655312	      0.25907421	     14.11934917	      3.20956757	     -9.32198798	     -9.78713858	      6.13287425	     -5.34699819	     -7.15221589	    -13.37962216	    -13.75827278	     23.63905238	     90.00000001	      0.00000000	      0.00000000	      3.72201978	    -18.79112723	      4.32089750	     49.24992938	     90.00000001	      0.00000000	      0.00000000
      0.21000000	     -1.64632934	     -1.98545982	      5.67289507	     -1.30218169	      0.85583923	      0.14393560	     24.94622423	     -5.94797723	     -8.13189198	     13.28062876	     10.60873026	      0.23179070	     -2.79597798	     -9.25396917	     -9.13029644	    -14.68878742	    -14.41372562	      3.96312757	     16.58699019	     22.55939296	      0.28949759	     11.71905975	      1.20203631	     -9.13029644	     -9.52358741	      6.76733270	     -5.33434033	     -6.67130089	    -13.47110330	    -13.71857530	     22.57878211	     90.00000001	      0.00000000	      0.00000000	      3.60417118	    -18.24149266	      3.82388998	     47.63588389	     90.00000001	      0.00000000	      0.00000000
      0.22000000	     -1.60259402	     -2.35684688	      5.52899436	     -1.28927546	      0.85652184	      0.14554510	     24.82229946	     -5.49019557	     -7.71693068	     14.64355437	     10.83549681	      0.25557824	     -2.78161877	     -9.49961640	     -9.09485009	    -14.52526161	    -15.00517399	      4.25562930	     18.40910486	     22.65930935	      0.32129949	      9.97673378	      0.65895579	     -9.09485009	     -9.44000326	      7.32528015	     -5.20910889	     -6.60660168	    -13.52727084	    -13.65560268	     22.43518619	     90.00000001	      0.00000000	      0.00000000	      3.07990885	    -17.88182932	      3.77440694	     47.00834921	     90.00000001	      0.00000000	      0.00000000
      0.23000000	     -1.68209652	     -2.62834163	      5.30984291	     -1.27660243	      0.85738337	      0.14722809	     24.80566086	     -5.11568389	     -6.94633140	     15.93055475	     11.15804832	      0.27804063	     -2.85691841	    -10.05335246	     -9.02666249	    -13.94849039	    -15.42693929	      4.42689155	     20.75548394	     22.68597084	      0.36225153	      7.87699827	     -0.39798960	     -9.02666249	     -9.23977567	      7.74165953	     -5.01566765	     -6.30529482	    -13.57809963	    -13.48637476	     21.76569241	     90.00000001	      0.00000000	      0.00000000	      2.72466567	    -17.36682390	      3.45138222	     45.75960117	     90.00000001	      0.00000000	      0.00000000
      0.24000000	     -1.67298303	     -2.99530117	      5.09176869	     -1.26397441	      0.85856356	      0.14906198	     24.55962495	     -4.55129917	     -6.28015363	     16.96468013	     11.39221582	      0.29608952	     -2.37302877	    -10.54767100	     -9.00056826	    -13.32727417	    -16.02627242	      4.83265386	     23.18372346	     22.92342429	      0.40463231	      5.42247252	     -1.22548687	     -9.00056826	     -9.17514137	      8.25740357	     -4.83937794	     -6.04110879	    -13.63876797	    -13.40511445	     21.42399119	     90.00000001	      0.00000000	      0.00000000	      2.18411566	    -16.95682163	      3.31849651	     44.94520762	     90.00000001	      0.00000000	      0.00000000
      0.25000000	     -1.71389791	     -3.25638301	      4.83865914	     -1.25157868	      0.85987331	      0.15090088	     24.27804424	     -4.07452345	     -5.64138480	     17.85373726	     11.62670818	      0.31160650	     -1.89047715	    -10.85556141	     -8.97283958	    -12.36621586	    -16.49738995	      5.11696692	     26.10757399	     23.12386871	      0.45566313	      2.73839246	     -2.32321538	     -8.97283958	     -9.08854210	      8.62500139	     -4.61463319	     -5.71125929	    -13.66216191	    -13.28132328	     20.95379143	     90.00000001	      0.00000000	      0.00000000	      1.71376411	    -16.50603730	      3.10482065	     43.91504398	     90.00000001	      0.00000000	      0.00000000
